<?xml version="1.0" encoding="UTF-8"?> <svg xmlns="http://www.w3.org/2000/svg" width="250" height="30" viewBox="0 0 250 30" fill="none"> <path d="M34.0053 5.54865C31.9346 5.54146 29.8994 6.08685 28.1097 7.12856C26.32 8.17027 24.8406 9.67059 23.8241 11.4747C22.7778 13.3137 22.2345 15.3959 22.249 17.5116C22.249 17.7632 22.249 18.0027 22.27 18.2453C22.0574 18.1884 21.8328 18.1375 21.6112 18.0836C20.342 17.7954 19.0488 17.626 17.7483 17.5775V6.1206H17.2422L15.4006 8.28561V17.6314C10.5 18.0265 5.87295 20.0517 2.25784 23.3838V8.2886L0.509061 6.1206H0V28.708H0.506068L1.53318 27.5102C5.51883 22.758 10.1034 20.4043 15.4006 19.9491V28.708H17.7513V19.8982C18.8755 19.941 19.9933 20.0884 21.0901 20.3384C21.6351 20.4642 22.1632 20.6119 22.6742 20.7816C23.3544 23.0757 24.7125 25.1104 26.5701 26.6185C28.4278 28.1267 30.6982 29.0377 33.083 29.232C33.4424 29.262 33.8137 29.2769 34.185 29.2769C34.7035 29.2781 35.2215 29.2471 35.7362 29.1841C38.3447 28.8931 40.771 27.7043 42.5995 25.8213C44.8114 23.575 46.0512 20.5489 46.0512 17.3963C46.0512 14.2438 44.8114 11.2177 42.5995 8.97135C40.2918 6.69354 37.427 5.55265 34.0053 5.54865ZM42.4678 22.3178C41.6461 23.7782 40.438 24.9842 38.9762 25.8033C37.5904 26.5963 36.0297 27.0336 34.4336 27.076H34.1072C33.1303 27.082 32.1582 26.9407 31.2235 26.6568C29.7682 26.2009 28.4477 25.3936 27.3786 24.3061C26.7129 23.6491 26.1451 22.8998 25.6927 22.0812C25.1794 21.1399 24.8377 20.1148 24.6835 19.0538C24.6092 18.5401 24.5732 18.0216 24.5757 17.5026C24.5551 15.7764 24.9899 14.0753 25.8364 12.5707C26.6754 11.1179 27.8787 9.90888 29.3275 9.06291C30.7763 8.21695 32.4206 7.76326 34.0982 7.7466C35.7957 7.74463 37.463 8.19532 38.9283 9.0522C40.3958 9.87457 41.6152 11.0764 42.4588 12.5318C43.304 14.012 43.7401 15.6904 43.7224 17.3948C43.7423 19.1173 43.3097 20.8149 42.4678 22.3178Z" fill="white"></path> <path d="M50.5558 28.7113H52.8137V8.33084H61.875V6.11792H50.5558V28.7113Z" fill="white"></path> <path d="M73.7931 6.11792L63.1208 28.7083H65.6391L69.1547 21.288H78.8837L82.4352 28.7203H84.8727L74.3381 6.1299L73.7931 6.11792ZM70.1997 19.096L74.0686 10.9181L77.9225 19.096H70.1997Z" fill="white"></path> <path d="M111.455 6.11792H108.421L99.3899 14.5953V6.11792H97.0871V28.7113H99.3899V18.1887L109.293 28.7113H112.299L100.606 16.2542L111.455 6.11792Z" fill="white"></path> <path d="M126.472 6.11792L116.644 28.7113H119.1L126.709 11.2565L134.198 28.7113H136.653L126.963 6.11792H126.472Z" fill="white"></path> <path d="M8.97146 3.49756C9.93728 3.49756 10.7202 2.7146 10.7202 1.74878C10.7202 0.782954 9.93728 0 8.97146 0C8.00563 0 7.22268 0.782954 7.22268 1.74878C7.22268 2.7146 8.00563 3.49756 8.97146 3.49756Z" fill="white"></path> <path d="M178.801 29.4062C179.766 29.4062 180.549 28.6233 180.549 27.6575C180.549 26.6916 179.766 25.9087 178.801 25.9087C177.835 25.9087 177.052 26.6916 177.052 27.6575C177.052 28.6233 177.835 29.4062 178.801 29.4062Z" fill="white"></path> <path d="M164.125 11.8551V8.3486H173.294V6.13867H161.975V8.3486V11.8701C159.435 12.0318 157.358 12.7205 155.743 13.9363V6.24348H153.347V14.0441C153.347 16.1343 153.238 17.5007 153.018 18.1436C152.705 19.078 152.088 19.881 151.266 20.4253C150.35 21.0248 149.271 21.3279 148.176 21.2938C147.063 21.3218 145.968 21.0083 145.038 20.3954C144.16 19.7965 143.211 18.7065 143.046 15.7809V6.24348H140.768V14.2897C140.768 16.6633 141.04 18.442 141.585 19.6258C142.104 20.7807 142.967 21.7471 144.056 22.3927C145.16 23.0515 146.536 23.3809 148.185 23.3809C149.834 23.3809 151.204 23.0515 152.296 22.3927C152.719 22.1386 153.11 21.8372 153.464 21.4944C153.428 22.3927 153.204 26.9354 148.374 27.2558C147.633 27.31 146.891 27.1663 146.224 26.8395V29.1632C150.715 29.6513 153.964 28.5643 155.168 24.8003C155.567 23.5546 155.767 21.9236 155.767 19.9073V16.8709C156.885 15.202 158.958 14.2417 161.987 13.9902V29.3459C162.388 29.3788 162.75 29.3938 163.077 29.3938C166.301 29.3938 168.848 28.6073 170.718 27.0342C172.589 25.4611 173.519 23.304 173.509 20.5631C173.509 18.0238 172.666 15.9865 170.979 14.4514C169.292 12.9162 167.007 12.0508 164.125 11.8551ZM164.125 27.2887V13.9902C168.916 14.4304 171.231 16.6074 171.311 20.5152C171.389 25.8633 166.323 27.2288 164.125 27.2767V27.2887Z" fill="white"></path> <path d="M195.129 4.66553H194.692V28.9089H195.129V4.66553Z" fill="white"></path> <path d="M209.928 5.21924H212.698V5.66541H210.449V6.71348H211.59C211.944 6.6886 212.295 6.78469 212.587 6.98598C212.702 7.08075 212.792 7.20117 212.852 7.33747C212.911 7.47378 212.937 7.62214 212.929 7.77053C212.938 7.92848 212.909 8.08638 212.845 8.2308C212.78 8.37522 212.681 8.50189 212.557 8.60001C212.249 8.81441 211.878 8.9198 211.503 8.89946H209.928V5.21924ZM211.482 8.47424C211.723 8.49025 211.964 8.42946 212.168 8.30056C212.246 8.2415 212.308 8.16421 212.35 8.07547C212.391 7.98672 212.41 7.88922 212.405 7.7915C212.405 7.34831 212.105 7.12672 211.482 7.12672H210.449V8.47424H211.482Z" fill="white"></path> <path d="M217.702 7.97117H215.752L215.348 8.88748H214.809L216.471 5.21924H216.989L218.657 8.88748H218.106L217.702 7.97117ZM217.519 7.55194L216.729 5.75525L215.935 7.55194H217.519Z" fill="white"></path> <path d="M223.877 5.21924V8.88748H223.365V5.6744H221.739L221.703 6.74942C221.694 7.16224 221.653 7.57374 221.58 7.98015C221.542 8.23925 221.439 8.48449 221.28 8.69284C221.21 8.77209 221.122 8.83448 221.024 8.87543C220.926 8.91637 220.82 8.93482 220.714 8.92941C220.603 8.93005 220.492 8.91595 220.385 8.88748L220.421 8.42034C220.476 8.43541 220.532 8.44346 220.589 8.44429C220.659 8.44591 220.729 8.4301 220.793 8.39824C220.856 8.36639 220.91 8.31947 220.951 8.26163C221.059 8.09886 221.129 7.91347 221.155 7.71963C221.208 7.4039 221.238 7.0846 221.244 6.76439L221.301 5.21924H223.877Z" fill="white"></path> <path d="M228.979 7.97117H227.027L226.625 8.88748H226.083L227.745 5.21924H228.266L229.931 8.88748H229.383L228.979 7.97117ZM228.793 7.55194L228.003 5.75525L227.212 7.55194H228.793Z" fill="white"></path> <path d="M235.295 5.21924V8.88748H234.771V7.25249H232.674V8.88748H232.15V5.21924H232.674V6.79733H234.771V5.21924H235.295Z" fill="white"></path> <path d="M238.657 8.68724C238.369 8.53124 238.129 8.29927 237.963 8.01647C237.798 7.72243 237.711 7.39092 237.711 7.05375C237.711 6.71658 237.798 6.38507 237.963 6.09102C238.129 5.80782 238.371 5.57582 238.66 5.42026C238.967 5.2561 239.31 5.17263 239.657 5.17771C239.926 5.17451 240.192 5.22332 240.442 5.32144C240.672 5.41623 240.877 5.56276 241.041 5.74965L240.7 6.07904C240.568 5.93756 240.408 5.82568 240.23 5.75082C240.052 5.67596 239.86 5.63984 239.666 5.64485C239.409 5.6405 239.155 5.70346 238.93 5.82751C238.714 5.94526 238.535 6.12039 238.412 6.33357C238.291 6.5543 238.227 6.80199 238.227 7.05375C238.227 7.30551 238.291 7.5532 238.412 7.77392C238.535 7.9871 238.714 8.16223 238.93 8.27999C239.155 8.40494 239.409 8.46894 239.666 8.46564C239.86 8.46971 240.053 8.43228 240.231 8.35584C240.409 8.2794 240.569 8.16574 240.7 8.02247L241.041 8.35485C240.877 8.54206 240.672 8.68865 240.442 8.78306C240.153 8.89645 239.843 8.94657 239.533 8.93004C239.223 8.91351 238.921 8.83072 238.645 8.68724H238.657Z" fill="white"></path> <path d="M210.578 14.9782C210.29 14.8222 210.049 14.5902 209.883 14.3074C209.718 14.0134 209.632 13.6819 209.632 13.3447C209.632 13.0076 209.718 12.676 209.883 12.382C210.049 12.0992 210.29 11.8672 210.578 11.7112C210.885 11.5477 211.228 11.4642 211.575 11.4687C211.845 11.4655 212.112 11.5143 212.363 11.6124C212.593 11.706 212.798 11.8516 212.962 12.0376L212.62 12.37C212.489 12.2281 212.329 12.1158 212.151 12.0404C211.973 11.9651 211.781 11.9284 211.587 11.9328C211.329 11.9298 211.074 11.9938 210.848 12.1185C210.633 12.2364 210.454 12.4116 210.333 12.6245C210.211 12.8453 210.148 13.093 210.148 13.3447C210.148 13.5965 210.211 13.8442 210.333 14.0649C210.454 14.2779 210.633 14.453 210.848 14.571C211.074 14.6946 211.329 14.7575 211.587 14.7536C211.781 14.7575 211.973 14.7203 212.151 14.6444C212.329 14.5685 212.489 14.4557 212.62 14.3134L212.962 14.6428C212.797 14.8301 212.593 14.9775 212.363 15.074C212.112 15.1745 211.843 15.2244 211.572 15.2208C211.226 15.2264 210.883 15.1429 210.578 14.9782Z" fill="white"></path> <path d="M215.264 11.511H215.786V14.3408L217.954 11.511H218.427V15.1792H217.912V12.3524L215.735 15.1792H215.253L215.264 11.511Z" fill="white"></path> <path d="M224.116 11.511V15.1792H223.601V11.9661H221.978L221.939 13.0412C221.933 13.4542 221.892 13.8659 221.816 14.2719C221.78 14.5305 221.677 14.7752 221.517 14.9816C221.446 15.0609 221.359 15.1235 221.261 15.1649C221.163 15.2063 221.057 15.2255 220.951 15.2211C220.839 15.2201 220.727 15.2061 220.619 15.1792L220.658 14.7121C220.712 14.7266 220.769 14.7336 220.825 14.733C220.896 14.7345 220.965 14.7189 221.028 14.6876C221.091 14.6563 221.146 14.6103 221.188 14.5534C221.295 14.39 221.364 14.2049 221.391 14.0114C221.443 13.6955 221.473 13.3763 221.481 13.0561L221.538 11.511H224.116Z" fill="white"></path> <path d="M229.207 14.2629H227.257L226.853 15.1792H226.314L227.976 11.511H228.494L230.162 15.1792H229.611L229.207 14.2629ZM229.024 13.8437L228.23 12.047L227.44 13.8437H229.024Z" fill="white"></path> <path d="M212.33 18.2545H210.443V21.4705H209.922V17.7993H212.318L212.33 18.2545Z" fill="white"></path> <path d="M214.534 17.7993H215.055V20.6291L217.223 17.7993H217.705V21.4705H217.193V18.6438L215.016 21.4705H214.534V17.7993Z" fill="white"></path> <path d="M220.418 17.7993H223.185V18.2455H220.936V19.2936H222.08C222.433 19.2687 222.785 19.3648 223.077 19.5661C223.191 19.6614 223.282 19.7825 223.34 19.9193C223.399 20.0562 223.425 20.205 223.415 20.3536C223.424 20.5108 223.396 20.6678 223.332 20.8116C223.268 20.9554 223.17 21.0818 223.047 21.1801C222.738 21.3949 222.366 21.5003 221.99 21.4795H220.418V17.7993ZM221.969 21.0543C222.211 21.0708 222.452 21.01 222.658 20.8806C222.735 20.8215 222.796 20.7446 222.837 20.6564C222.878 20.5683 222.896 20.4715 222.891 20.3746C222.891 19.9314 222.592 19.7068 221.969 19.7068H220.936V21.0543H221.969Z" fill="white"></path> <path d="M227.111 19.8535H226.347V21.4705H225.823V17.7993H226.338V19.3924H227.111L228.263 17.7993H228.823L227.512 19.578L228.886 21.4705H228.287L227.111 19.8535Z" fill="white"></path> <path d="M231.641 21.2671C231.35 21.1112 231.108 20.8781 230.94 20.5934C230.811 20.3784 230.727 20.1395 230.692 19.8911C230.657 19.6426 230.673 19.3897 230.739 19.1475C230.804 18.9053 230.918 18.6789 231.073 18.4817C231.228 18.2845 231.421 18.1207 231.641 18.0001C231.95 17.8407 232.292 17.7576 232.64 17.7576C232.987 17.7576 233.33 17.8407 233.638 18.0001C233.928 18.1574 234.169 18.3903 234.336 18.6739C234.501 18.9674 234.588 19.2984 234.588 19.6351C234.588 19.9718 234.501 20.3029 234.336 20.5964C234.169 20.8796 233.928 21.1116 233.638 21.2671C233.33 21.4265 232.987 21.5097 232.64 21.5097C232.292 21.5097 231.95 21.4265 231.641 21.2671ZM233.369 20.8629C233.581 20.7423 233.756 20.5676 233.878 20.3568C234 20.1357 234.063 19.8875 234.063 19.6351C234.063 19.3828 234 19.1346 233.878 18.9135C233.757 18.702 233.581 18.5272 233.369 18.4074C233.147 18.2834 232.896 18.2204 232.641 18.2247C232.386 18.2207 232.134 18.2837 231.911 18.4074C231.696 18.5254 231.519 18.7006 231.399 18.9135C231.275 19.1338 231.21 19.3823 231.21 19.6351C231.21 19.8879 231.275 20.1364 231.399 20.3568C231.52 20.569 231.697 20.744 231.911 20.8629C232.135 20.985 232.386 21.0479 232.641 21.0455C232.896 21.0485 233.146 20.9855 233.369 20.8629Z" fill="white"></path> <path d="M237.657 21.2673C237.369 21.1113 237.129 20.8793 236.963 20.5965C236.798 20.303 236.711 19.972 236.711 19.6353C236.711 19.2986 236.798 18.9676 236.963 18.6741C237.129 18.3898 237.37 18.1567 237.66 18.0003C237.966 17.8365 238.308 17.7531 238.654 17.7578C238.924 17.7546 239.191 17.8034 239.442 17.9015C239.672 17.9963 239.877 18.1428 240.041 18.3297L239.699 18.6591C239.568 18.5176 239.408 18.4057 239.23 18.3309C239.052 18.256 238.86 18.2199 238.666 18.2249C238.408 18.221 238.153 18.2839 237.927 18.4076C237.712 18.5255 237.533 18.7007 237.412 18.9136C237.29 19.1347 237.226 19.383 237.226 19.6353C237.226 19.8876 237.29 20.1359 237.412 20.357C237.534 20.5694 237.712 20.7443 237.927 20.863C238.154 20.9853 238.408 21.0481 238.666 21.0457C238.86 21.0496 239.052 21.0123 239.23 20.9365C239.408 20.8606 239.568 20.7478 239.699 20.6055L240.041 20.9349C239.877 21.1221 239.672 21.2687 239.442 21.3631C239.191 21.4636 238.922 21.5135 238.651 21.5098C238.305 21.5155 237.962 21.432 237.657 21.2673Z" fill="white"></path> <path d="M244.826 18.2545H243.58V21.4705H243.068V18.2545H241.817V17.7993H244.841L244.826 18.2545Z" fill="white"></path> <path d="M249.65 19.3714C249.77 19.4799 249.863 19.6142 249.923 19.7641C249.984 19.914 250.009 20.0757 249.997 20.2368C250.009 20.4084 249.981 20.5804 249.916 20.7397C249.852 20.899 249.751 21.0414 249.623 21.1561C249.314 21.3831 248.934 21.4943 248.551 21.4705H247.036V17.7993H247.557V19.078H248.647C249.005 19.0545 249.361 19.1584 249.65 19.3714ZM249.231 20.8477C249.314 20.7725 249.378 20.6796 249.42 20.5759C249.462 20.4722 249.48 20.3604 249.473 20.2488C249.473 19.7457 249.159 19.4942 248.53 19.4942H247.557V21.0543H248.53C248.781 21.0714 249.029 20.9981 249.231 20.8477Z" fill="white"></path> <path d="M211.884 24.2828C212.161 24.442 212.39 24.6739 212.545 24.9535C212.703 25.25 212.785 25.5806 212.785 25.9163C212.785 26.2519 212.703 26.5825 212.545 26.879C212.39 27.1586 212.161 27.3905 211.884 27.5497C211.597 27.7136 211.271 27.7974 210.94 27.7923C210.661 27.7964 210.383 27.7466 210.123 27.6456C209.892 27.5523 209.687 27.4056 209.524 27.2174L209.856 26.885C209.994 27.0298 210.162 27.1436 210.347 27.219C210.532 27.2944 210.731 27.3295 210.931 27.3222C211.152 27.3238 211.369 27.2698 211.564 27.1651C211.758 27.0605 211.922 26.9085 212.042 26.7233C212.165 26.5321 212.24 26.3145 212.261 26.0884H210.485V25.6572H212.255C212.225 25.4422 212.145 25.2372 212.021 25.0583C211.901 24.8861 211.741 24.7454 211.554 24.6481C211.361 24.5504 211.148 24.5001 210.931 24.5014C210.732 24.4948 210.533 24.5303 210.347 24.6056C210.162 24.6809 209.995 24.7944 209.856 24.9386L209.524 24.6062C209.692 24.4162 209.904 24.2694 210.141 24.178C210.4 24.0771 210.677 24.0273 210.955 24.0312C211.282 24.0315 211.602 24.1183 211.884 24.2828Z" fill="white"></path> <path d="M218.364 24.0906V27.7588H217.828V26.1238H215.732V27.7588H215.208V24.0906H215.732V25.6687H217.828V24.0906H218.364Z" fill="white"></path> <path d="M223.742 27.3037V27.7588H221.08V24.0906H223.667V24.5457H221.604V25.6717H223.442V26.1178H221.604V27.3156L223.742 27.3037Z" fill="white"></path> <path d="M228.689 24.4321C228.818 24.5515 228.921 24.6965 228.992 24.8578C229.062 25.0191 229.099 25.1933 229.099 25.3694C229.099 25.5454 229.062 25.7196 228.992 25.8809C228.921 26.0422 228.818 26.1872 228.689 26.3066C228.368 26.5501 227.971 26.6711 227.569 26.648H226.67V27.759H226.146V24.0907H227.578C227.977 24.0697 228.37 24.1907 228.689 24.4321ZM228.308 25.9802C228.392 25.9018 228.458 25.8072 228.504 25.7021C228.549 25.5971 228.572 25.4838 228.572 25.3694C228.572 25.2549 228.549 25.1417 228.504 25.0366C228.458 24.9315 228.392 24.8369 228.308 24.7585C228.087 24.6043 227.82 24.5294 227.551 24.5459H226.652V26.1928H227.551C227.82 26.2093 228.087 26.1344 228.308 25.9802Z" fill="white"></path> <path d="M233.8 24.5457H231.902V27.7588H231.381V24.0906H233.776L233.8 24.5457Z" fill="white"></path> <path d="M236.001 24.0906H236.522V26.9204L238.69 24.0906H239.175V27.7588H238.66V24.935L236.483 27.7588H236.001V24.0906Z" fill="white"></path> <path d="M244.577 24.0904V27.7587H244.065V26.6777H243.053H242.912L242.176 27.7527H241.622L242.433 26.5908C242.191 26.5142 241.98 26.3594 241.834 26.1506C241.689 25.9297 241.616 25.6692 241.625 25.405C241.615 25.2232 241.646 25.0414 241.715 24.8731C241.785 24.7047 241.891 24.554 242.026 24.4318C242.332 24.1877 242.716 24.0641 243.107 24.0844L244.577 24.0904ZM242.382 26.0309C242.582 26.19 242.834 26.2681 243.089 26.2494H244.059V24.5456H243.119C242.859 24.5284 242.603 24.6073 242.397 24.7672C242.238 24.9383 242.149 25.1625 242.146 25.3961C242.143 25.6297 242.227 25.856 242.382 26.0309Z" fill="white"></path> </svg> 