<?xml version="1.0" encoding="UTF-8"?> <svg xmlns="http://www.w3.org/2000/svg" width="382" height="378" viewBox="0 0 382 378" fill="none"> <path d="M150.057 174.262C152.491 180.763 153.538 183.658 152.779 187.065C152.395 188.792 151.529 190.702 150.006 193.297C148.482 195.892 146.346 199.097 143.466 203.417C138.226 211.278 130.987 225.304 124.76 238.892C118.545 252.453 113.261 265.746 112.003 272.112C111.698 273.655 111.356 274.573 110.963 275.061C110.787 275.28 110.618 275.389 110.446 275.444C110.264 275.502 110 275.526 109.6 275.445C108.763 275.276 107.564 274.697 105.832 273.545C104.124 272.41 101.994 270.785 99.3151 268.63C53.3066 231.624 30.9603 175.492 34.6692 105.822C35.0507 98.6592 35.206 91.1391 35.1493 84.7898C35.0929 78.4726 34.8265 73.2278 34.3421 70.6682L34.342 70.6678C33.7172 67.3726 33.265 64.9553 33.0794 63.2931C32.9859 62.4564 32.9687 61.8792 33.0098 61.5061C33.0105 61.4996 33.0112 61.4933 33.012 61.4871M150.057 174.262L150.994 173.911L150.057 174.262C150.057 174.262 150.057 174.262 150.057 174.262ZM150.057 174.262C138.437 143.23 107.326 110.226 65.7437 85.0495M65.7437 85.0495C65.7438 85.0496 65.7438 85.0496 65.7438 85.0496L66.2617 84.1941L65.7437 85.0495ZM65.7437 85.0495C55.2955 78.7252 43.6902 70.7668 39.9703 67.3454M39.9703 67.3454C39.9703 67.3454 39.9703 67.3454 39.9703 67.3454L40.6472 66.6093L39.9703 67.3454ZM39.9703 67.3454C37.5334 65.1046 35.7445 63.4681 34.4509 62.4536C33.8056 61.9475 33.3384 61.6407 33.012 61.4871M33.012 61.4871C33.0332 61.3064 33.0617 61.2315 33.0694 61.2145M33.012 61.4871C33.0088 61.4856 33.0056 61.4841 33.0024 61.4826C32.8528 61.413 32.7763 61.3954 32.7524 61.3917M33.0694 61.2145C33.0708 61.2121 33.0714 61.2107 33.0713 61.2107C33.0713 61.2106 33.0706 61.2118 33.0694 61.2145ZM33.0694 61.2145C33.0611 61.2292 33.0255 61.2829 32.9379 61.334C32.8456 61.3878 32.7757 61.3924 32.7524 61.3917M32.7524 61.3917C32.7465 61.3907 32.7438 61.3907 32.7439 61.3909C32.744 61.391 32.7469 61.3915 32.7524 61.3917ZM320.393 121.173L320.813 122.08C319.065 122.89 314.816 124.012 309.498 125.173C304.131 126.345 297.552 127.581 291.051 128.601C240.405 136.548 205.723 151.221 180.487 175.212C176.978 178.549 174.395 181.007 172.523 183.14C170.661 185.26 169.563 186.994 168.979 188.858C168.394 190.724 168.294 192.814 168.59 195.695C168.887 198.591 169.571 202.195 170.501 207.082C174.801 229.692 176.129 254.159 174.166 274.778C174.139 275.066 174.112 275.349 174.085 275.626C173.718 279.473 173.449 282.289 173.534 284.315C173.628 286.519 174.124 287.315 174.858 287.654C175.293 287.856 175.943 287.968 176.935 287.915C177.921 287.862 179.162 287.652 180.724 287.285C183.636 286.6 187.511 285.408 192.679 283.818C193.067 283.699 193.463 283.577 193.867 283.453C243.826 268.095 285.329 223.759 307.724 161.515C312.107 149.335 318.141 134.91 321.153 129.456L320.393 121.173ZM320.393 121.173L320.813 122.08C322.789 121.165 324.181 120.582 325.089 120.36C325.279 120.313 325.431 120.287 325.548 120.276L320.393 121.173ZM122.751 295.395C120.352 293.033 118.008 291.761 115.441 292.277C112.985 292.77 110.675 294.853 108.148 298.129C106.689 300.02 105.569 301.512 104.927 302.595C104.615 303.122 104.351 303.657 104.263 304.149C104.217 304.406 104.204 304.73 104.326 305.058C104.458 305.414 104.712 305.675 105.018 305.834C105.536 306.105 106.173 306.07 106.691 305.996C107.268 305.915 107.977 305.738 108.807 305.491C110.47 304.994 112.769 304.163 115.754 303.058C119.138 301.806 121.465 300.721 122.679 299.622C123.304 299.056 123.785 298.351 123.785 297.493C123.784 296.648 123.316 295.951 122.751 295.395ZM122.751 295.395L122.049 296.108L122.75 295.395C122.75 295.395 122.751 295.395 122.751 295.395ZM66.2617 84.1941C107.951 109.435 139.266 142.592 150.994 173.911C155.792 186.73 155.792 186.73 144.298 203.972M112.984 272.306C111.756 278.518 109.424 278.044 98.6883 269.409C52.3824 232.164 29.9481 175.695 33.6706 105.769M33.3595 70.8541C30.8728 57.739 30.9504 57.693 40.6472 66.6093M308.665 161.853C286.195 224.309 244.498 268.935 194.16 284.409M169.518 207.269C165.813 187.786 165.813 187.786 179.798 174.488C205.234 150.305 240.138 135.578 290.896 127.613M320.393 121.173C328.233 117.541 328.393 118.407 322.028 129.939M164.305 279.512C162.165 292.557 162.165 292.557 151.275 294.71C139.667 297.003 120.072 289.297 118.9 281.978C117.375 272.443 153.084 196.994 158.607 198.086M115.407 302.12C103.438 306.551 103.063 306.357 108.939 298.74C113.977 292.211 117.396 291.525 122.049 296.108M158.67 310.283C166.941 318.964 168.934 318.72 166.842 309.277C165.41 302.82 161.847 300.706 154.782 302.125M41.3242 65.8733L41.3241 65.8732C38.9126 63.6559 37.0555 61.9545 35.6851 60.8798C35.0047 60.3462 34.3881 59.9215 33.8463 59.6694C33.3572 59.4417 32.6152 59.2074 31.9312 59.6058C31.2592 59.9973 31.0811 60.7489 31.0218 61.2871C30.9558 61.8866 30.9942 62.6424 31.0917 63.515C31.2879 65.2713 31.7584 67.7779 32.377 71.0401C32.8232 73.3976 33.0928 78.4678 33.1494 84.8076C33.2057 91.1152 33.0513 98.5939 32.672 105.716L33.6706 105.769L32.672 105.716C28.9359 175.897 51.4581 232.703 98.0616 270.188C100.75 272.351 102.938 274.023 104.725 275.211C106.488 276.383 107.961 277.154 109.203 277.405C109.842 277.535 110.468 277.537 111.057 277.348C111.655 277.156 112.137 276.791 112.52 276.316C113.246 275.415 113.656 274.064 113.965 272.5C115.17 266.402 120.349 253.319 126.578 239.726C132.795 226.159 139.981 212.251 145.13 204.527L144.298 203.972L145.131 204.527L145.149 204.499C148.007 200.212 150.175 196.959 151.73 194.31C153.289 191.655 154.279 189.531 154.731 187.5C155.633 183.451 154.333 179.979 152.031 173.831L151.93 173.561L151.93 173.561C140.095 141.953 108.576 108.645 66.7796 83.3387L66.7795 83.3386C56.3274 77.0119 44.8805 69.1442 41.3242 65.8733ZM322.904 130.422L322.904 130.422C324.494 127.542 325.694 125.295 326.469 123.611C326.856 122.77 327.15 122.041 327.334 121.425C327.508 120.838 327.622 120.229 327.521 119.686C327.466 119.394 327.344 119.092 327.112 118.835C326.878 118.576 326.587 118.424 326.296 118.345C325.761 118.199 325.16 118.283 324.613 118.417C323.485 118.694 321.917 119.365 319.973 120.266C318.463 120.965 314.447 122.046 309.072 123.219C303.746 124.382 297.206 125.611 290.741 126.626C239.871 134.607 204.746 149.389 179.109 173.763L179.798 174.488L179.109 173.763L179.071 173.799C175.607 177.093 172.958 179.612 171.02 181.82C169.064 184.049 167.771 186.026 167.07 188.26C166.371 190.491 166.291 192.886 166.6 195.9C166.907 198.89 167.608 202.578 168.527 207.408L168.536 207.456C172.805 229.901 174.118 254.177 172.175 274.589C172.145 274.904 172.116 275.213 172.087 275.518C171.727 279.274 171.444 282.229 171.536 284.4C171.634 286.716 172.175 288.616 174.017 289.469C174.869 289.864 175.891 289.973 177.042 289.912C178.2 289.85 179.573 289.61 181.182 289.231C184.163 288.531 188.103 287.318 193.23 285.741C193.63 285.618 194.039 285.492 194.454 285.365C245.17 269.775 287.06 224.858 309.606 162.192C313.983 150.027 319.973 135.729 322.904 130.422ZM161.662 211.239L161.662 211.24C163.358 219.71 164.427 232.766 164.741 245.725C165.056 258.689 164.613 271.455 163.318 279.35C162.78 282.629 162.386 285.026 161.928 286.843C161.47 288.659 160.976 289.77 160.312 290.545C159.663 291.302 158.768 291.834 157.296 292.31C155.801 292.794 153.827 293.186 151.081 293.729C145.534 294.825 137.938 293.534 131.54 291.018C128.354 289.765 125.525 288.231 123.439 286.591C121.32 284.926 120.12 283.273 119.888 281.82C119.819 281.388 119.846 280.665 120.021 279.617C120.191 278.59 120.489 277.33 120.904 275.863C121.734 272.931 123.013 269.237 124.618 265.052C127.826 256.685 132.308 246.418 137.014 236.475C141.721 226.53 146.642 216.93 150.723 209.894C152.767 206.372 154.585 203.519 156.049 201.591C156.785 200.622 157.404 199.925 157.894 199.495C158.045 199.362 158.172 199.266 158.275 199.198C158.335 199.308 158.403 199.445 158.48 199.614C158.764 200.238 159.097 201.154 159.458 202.312C160.177 204.62 160.971 207.783 161.662 211.239ZM117.913 282.136L118.9 281.978L117.913 282.136C118.266 284.342 119.956 286.398 122.203 288.164C124.483 289.956 127.498 291.577 130.808 292.879C137.402 295.473 145.407 296.889 151.469 295.691L151.533 295.679C154.201 295.151 156.291 294.738 157.912 294.213C159.57 293.676 160.85 292.99 161.83 291.847C162.795 290.722 163.383 289.253 163.867 287.332C164.349 285.423 164.755 282.943 165.284 279.722L165.291 279.674C166.617 271.591 167.056 258.676 166.74 245.677C166.425 232.674 165.353 219.485 163.623 210.847C162.923 207.341 162.112 204.107 161.368 201.717C160.997 200.527 160.634 199.52 160.301 198.787C160.136 198.424 159.963 198.093 159.781 197.832C159.691 197.702 159.579 197.562 159.444 197.44C159.318 197.326 159.103 197.164 158.801 197.105C158.334 197.012 157.901 197.142 157.568 197.303C157.227 197.468 156.894 197.712 156.575 197.991C155.936 198.552 155.223 199.372 154.457 200.381C152.917 202.408 151.051 205.345 148.993 208.891C144.874 215.992 139.927 225.646 135.207 235.619C130.486 245.593 125.982 255.908 122.75 264.336C121.136 268.548 119.833 272.304 118.98 275.319C118.553 276.825 118.235 278.163 118.048 279.288C117.864 280.392 117.791 281.376 117.913 282.136ZM121.348 296.82L121.348 296.821C121.749 297.215 121.785 297.428 121.785 297.494C121.785 297.547 121.762 297.755 121.337 298.139C120.451 298.941 118.491 299.913 115.06 301.182L115.407 302.12L115.06 301.182C112.061 302.293 109.824 303.099 108.234 303.574C107.446 303.81 106.854 303.952 106.426 304.014C106.484 303.901 106.557 303.768 106.648 303.614C107.215 302.657 108.252 301.268 109.731 299.351C112.241 296.098 114.159 294.574 115.835 294.237C117.401 293.923 119.092 294.599 121.348 296.82ZM157.946 310.973L157.946 310.973L154.585 301.145C153.805 301.301 153.087 301.761 152.869 302.656C152.686 303.406 152.93 304.221 153.284 304.962C154.013 306.492 155.612 308.523 157.946 310.973ZM154.979 303.106L154.979 303.106C158.418 302.415 160.776 302.636 162.414 303.608C164.029 304.566 165.178 306.395 165.865 309.494C166.387 311.846 166.63 313.533 166.611 314.621C166.601 315.162 166.526 315.451 166.464 315.582C166.379 315.573 166.199 315.531 165.891 315.377C165.494 315.177 164.986 314.839 164.354 314.335C163.091 313.328 161.454 311.756 159.394 309.594C157.077 307.16 155.672 305.324 155.089 304.102C154.821 303.54 154.8 303.254 154.808 303.158C154.836 303.144 154.889 303.124 154.979 303.106ZM9.46894 22.9603L9.46892 22.9603C6.75511 17.4744 4.45809 12.3127 2.9434 8.42119C2.18455 6.47158 1.63085 4.86307 1.31762 3.70136C1.15977 3.11595 1.07282 2.6794 1.04382 2.38542C1.03864 2.33293 1.03581 2.28961 1.03443 2.25456C1.63032 1.63579 1.99929 1.53599 2.29422 1.57729C2.7294 1.63824 3.46366 2.04831 4.65692 3.43996C6.99655 6.16856 10.416 11.8196 16.1469 21.921L16.1469 21.9211C24.4718 36.5936 31.3448 46.7538 39.8056 55.4828C48.2659 64.2113 58.2732 71.4669 72.8113 80.3835C113.558 105.374 137.283 129.551 153.069 162.019L153.968 161.581L153.069 162.019C154.029 163.994 154.884 165.779 155.651 167.381C156.898 169.985 157.912 172.104 158.772 173.767C159.468 175.113 160.085 176.203 160.663 177.036C161.232 177.855 161.825 178.515 162.505 178.899C163.249 179.32 164.026 179.369 164.804 179.098C165.515 178.849 166.193 178.343 166.863 177.738C167.688 176.991 168.669 175.927 169.847 174.651C170.552 173.886 171.328 173.045 172.183 172.15C197.312 145.842 235.906 128.68 287.392 121.083C300.882 119.093 311.596 116.338 322.121 111.633C332.638 106.932 342.922 100.304 355.57 90.6169C362.978 84.9432 368.999 80.8862 373.423 78.3549C375.638 77.0875 377.428 76.2173 378.776 75.7156C379.451 75.4644 379.989 75.3159 380.397 75.2501C380.611 75.2155 380.764 75.2081 380.868 75.211C380.846 75.3094 380.806 75.4384 380.739 75.6012C380.424 76.3679 379.655 77.538 378.314 79.1296C375.656 82.2832 370.983 86.8233 364.051 92.6777C340.021 112.975 327.597 130.336 317.892 157.239C304.548 194.236 288.833 222.564 268.989 244.226C249.155 265.878 225.155 280.916 195.169 291.274C189.169 293.346 183.656 295.486 179.603 297.267C177.58 298.156 175.902 298.964 174.703 299.636C174.108 299.97 173.603 300.286 173.228 300.574C173.041 300.718 172.862 300.873 172.715 301.039C172.585 301.186 172.391 301.437 172.324 301.776C172.112 302.848 172.248 304.451 172.573 306.325C172.906 308.243 173.464 310.585 174.192 313.21C175.648 318.462 177.802 324.911 180.253 331.488C185.137 344.598 191.267 358.395 195.474 364.233L196.286 363.648L195.474 364.233C197.164 366.577 198.151 370.017 198.289 372.788C198.359 374.183 198.207 375.284 197.915 375.952C197.773 376.279 197.628 376.43 197.532 376.494C197.489 376.523 197.436 376.548 197.358 376.554C197.29 376.484 197.201 376.385 197.09 376.253C196.783 375.89 196.365 375.348 195.843 374.635C194.801 373.214 193.384 371.167 191.691 368.642C188.308 363.595 183.844 356.667 179.119 349.08C170.762 335.661 163.129 325.386 155.568 318.239C147.995 311.081 140.443 307.014 132.261 306.113C124.088 305.213 115.436 307.49 105.692 312.721C95.954 317.951 85.0527 326.172 72.3506 337.267C68.5157 340.616 64.8354 343.616 61.9994 345.75C60.579 346.818 59.3849 347.659 58.496 348.215C58.049 348.495 57.7013 348.69 57.453 348.805C57.3778 348.84 57.3202 348.863 57.2783 348.879C56.1626 348.63 55.8188 348.211 55.7152 347.856C55.5741 347.372 55.694 346.479 56.5329 345.011C58.1779 342.131 62.0558 337.941 68.3121 332.399C78.3494 323.509 86.11 316.375 91.8314 310.462C97.5396 304.562 101.286 299.81 103.222 295.682C105.185 291.495 105.309 287.894 103.708 284.425C102.149 281.045 99.0004 277.906 94.7267 274.466C69.4194 254.1 51.6942 231.029 40.6984 203.196C29.6979 175.353 25.4091 142.684 27.0686 103.093C27.7686 86.392 27.3192 74.3098 24.7042 62.406C22.0901 50.5062 17.3244 38.8417 9.46894 22.9603ZM1.03599 2.13988C1.0375 2.12772 1.03828 2.12969 1.03571 2.14231C1.03581 2.14144 1.0359 2.14062 1.03599 2.13988Z" stroke="#2AAA27" stroke-width="2"></path> </svg> 