<?xml version="1.0" encoding="UTF-8"?> <svg xmlns="http://www.w3.org/2000/svg" width="396" height="395" viewBox="0 0 396 395" fill="none"> <path d="M251.897 69.118C279.934 79.8581 302.233 96.8392 316.187 118.166C322.545 127.885 326.101 133.192 328.271 135.859C328.81 136.52 329.244 136.995 329.6 137.327C329.962 137.665 330.199 137.812 330.339 137.871C330.382 137.889 330.409 137.896 330.423 137.899C330.445 137.888 330.516 137.846 330.643 137.711C330.807 137.536 330.953 137.228 330.971 136.667C330.989 136.1 330.872 135.353 330.587 134.421C330.018 132.559 328.847 130.161 327.168 127.369C323.818 121.8 318.563 114.851 312.495 107.808C306.432 100.771 299.582 93.6683 293.059 87.7898C286.514 81.8923 280.371 77.2927 275.713 75.1856C266.467 71.0033 260.569 68.5386 256.74 67.3823C254.822 66.8029 253.504 66.5783 252.586 66.5969C251.705 66.6148 251.273 66.8516 250.994 67.1485C250.319 67.8651 250.408 68.1419 250.418 68.1713C250.467 68.3074 250.752 68.679 251.897 69.118ZM251.897 69.118L251.539 70.0517M251.897 69.118L251.539 70.0517M251.897 69.118C251.897 69.1179 251.897 69.118 251.896 69.1179L251.539 70.0517M251.897 69.118L251.539 70.0517M201.982 8.90301C219.136 15.5203 237.973 78.6292 233.115 113.212C227.652 152.119 199.269 202.061 189.93 189.203C151.854 136.776 151.312 74.3403 188.481 21.967M203.872 213.92C240.577 261.356 239.367 335.358 201.127 381.861C195.272 388.98 195.272 388.98 190.162 383.262C152.29 340.893 153.976 255.696 193.558 211.693M201.622 9.83595C203.559 10.583 205.603 12.165 207.695 14.5292C209.78 16.8848 211.864 19.9622 213.892 23.6152C217.949 30.9208 221.735 40.4384 224.845 50.8565C231.071 71.7161 234.526 95.982 232.125 113.073L233.115 113.212L232.125 113.073C229.414 132.381 221.002 154.473 212.106 170.125C207.652 177.964 203.126 184.097 199.198 187.466C197.224 189.159 195.511 190.058 194.118 190.233C192.831 190.394 191.712 189.954 190.739 188.615C152.912 136.532 152.379 74.5649 189.297 22.5458C193.957 15.9783 196.514 12.5166 198.269 10.8181C199.136 9.97999 199.697 9.68354 200.115 9.59216C200.511 9.50542 200.929 9.56858 201.622 9.83595ZM190.908 382.596L190.163 383.262L190.908 382.596C172.188 361.653 163.183 330.035 163.815 298.11C164.446 266.19 174.71 234.142 194.301 212.362C195.479 211.053 196.286 210.16 196.952 209.612C197.608 209.074 197.905 209.056 198.101 209.098C198.408 209.165 198.9 209.468 199.77 210.419C200.608 211.336 201.646 212.677 203.081 214.532C239.499 261.597 238.3 335.082 200.354 381.226C198.877 383.022 197.814 384.313 196.952 385.183C196.062 386.082 195.562 386.342 195.239 386.383C194.985 386.416 194.607 386.337 193.858 385.696C193.111 385.058 192.206 384.048 190.908 382.596ZM234.106 113.352C236.563 95.8596 233.028 71.2795 226.761 50.2845C223.625 39.7753 219.789 30.1134 215.641 22.6443C213.567 18.9099 211.403 15.7011 209.193 13.2038C206.991 10.715 204.694 8.8773 202.342 7.97002C201.523 7.65414 200.657 7.42596 199.687 7.63845C198.738 7.84633 197.851 8.43973 196.879 9.38079C194.957 11.2405 192.274 14.8941 187.666 21.3882C150.246 74.1157 150.796 137.021 189.121 189.79C190.483 191.666 192.294 192.478 194.368 192.217C196.336 191.97 198.415 190.773 200.5 188.984C204.692 185.389 209.354 179.017 213.845 171.114C222.842 155.283 231.353 132.951 234.106 113.352ZM201.899 382.496C240.434 335.635 241.655 261.115 204.663 213.308L204.631 213.267C203.234 211.461 202.146 210.055 201.246 209.07C200.369 208.111 199.505 207.355 198.523 207.143C197.429 206.907 196.505 207.392 195.683 208.067C194.885 208.722 193.978 209.731 192.872 210.96L192.814 211.024C172.824 233.247 162.454 265.8 161.815 298.071C161.176 330.337 170.265 362.503 189.417 383.928L189.469 383.987C190.702 385.367 191.697 386.48 192.558 387.216C193.429 387.961 194.375 388.51 195.492 388.367C196.54 388.233 197.456 387.516 198.373 386.591C199.309 385.646 200.43 384.282 201.864 382.539L201.899 382.496ZM74.8114 135.793L73.9378 135.309L74.8114 135.793C81.4057 123.894 95.3334 108.306 109.496 95.5115C116.568 89.1228 123.667 83.4579 129.899 79.318C133.016 77.2479 135.901 75.5689 138.446 74.3718C141.005 73.1681 143.157 72.482 144.825 72.3383C145.616 72.2701 146.163 72.2973 146.512 72.372C146.636 72.3983 146.716 72.4262 146.765 72.448C146.757 72.4787 146.743 72.5189 146.722 72.5697C146.615 72.8264 146.373 73.2009 145.934 73.6923C144.163 75.6737 140.027 78.6492 133.89 82.0635C113.17 93.5896 90.5731 116.171 78.1116 137.787L78.978 138.286L78.1116 137.787C74.6276 143.831 71.7433 148.162 69.5965 150.881C68.5181 152.246 67.6551 153.167 67.0192 153.695C66.9511 153.751 66.8878 153.801 66.8292 153.845C66.838 153.762 66.85 153.67 66.866 153.568C66.9959 152.738 67.3464 151.511 67.9654 149.874C69.1979 146.614 71.4289 141.897 74.8114 135.793ZM146.78 72.3647C146.78 72.3645 146.781 72.3674 146.78 72.3737C146.779 72.368 146.78 72.3648 146.78 72.3647ZM66.3161 154.15C66.3162 154.15 66.3186 154.149 66.3234 154.148C66.3183 154.15 66.316 154.15 66.3161 154.15ZM66.8308 154.433C66.833 154.439 66.8338 154.442 66.8337 154.442C66.8336 154.443 66.8325 154.44 66.8308 154.433ZM1.91511 212.585L1.91531 212.585C2.00901 212.145 2.47115 211.306 3.30606 210.268C4.10707 209.272 5.14777 208.218 6.22373 207.36C8.50347 205.54 13.5812 201.367 17.5106 198.082C48.7836 171.947 101.242 159.938 140.757 169.869C145.148 170.973 148.392 171.822 150.676 172.666C153.025 173.533 154.052 174.293 154.413 175.02C154.731 175.66 154.673 176.612 153.696 178.407C152.738 180.168 151.07 182.429 148.74 185.496C138.587 198.86 118.863 209.776 99.424 215.299C89.7218 218.056 80.1559 219.449 71.9687 219.151C63.7526 218.851 57.08 216.855 52.9829 213.001C52.7166 212.751 52.6612 212.6 52.6524 212.564C52.6524 212.564 52.6524 212.564 52.6524 212.564C52.655 212.559 52.6592 212.551 52.6661 212.541C52.7122 212.473 52.842 212.34 53.1378 212.183C53.4254 212.03 53.8176 211.881 54.3146 211.754C56.3268 211.237 59.6011 211.17 63.0593 211.891L63.0594 211.891C93.3125 218.196 122.355 209.545 142.453 188.18C145.455 184.989 147.079 181.992 146.714 179.28C146.338 176.476 143.937 174.51 140.287 173.172C136.597 171.819 131.307 170.976 124.487 170.608C117.651 170.238 109.212 170.342 99.1851 170.918C78.1138 172.129 52.2748 180.871 33.8034 190.66C24.5792 195.548 17.0861 200.753 12.9455 205.49C10.8852 207.847 9.5433 210.213 9.37089 212.463C9.1898 214.827 10.3097 216.843 12.6459 218.36C59.7849 248.965 119.696 249.145 166.538 218.811C177.303 211.84 183.943 206.904 187.134 202.969C188.741 200.987 189.589 199.12 189.506 197.272C189.422 195.408 188.405 193.814 186.856 192.357C164.479 171.307 155.021 135.115 157.661 98.3307C160.301 61.5633 175.013 24.4806 200.625 1.73694L199.961 0.989212L200.625 1.73686C201.041 1.36725 201.69 1.23335 202.903 1.88088C204.121 2.53113 205.618 3.84533 207.324 5.7871C210.718 9.64921 214.697 15.7139 218.654 22.9193C226.569 37.3297 234.272 56.0699 236.971 70.346C240.089 86.8345 238.71 108.885 234.358 129.152C229.999 149.457 222.71 167.724 214.187 176.783C213.327 177.698 212.617 178.801 212.156 179.858C211.716 180.866 211.422 182.021 211.649 182.965L211.649 182.966C211.796 183.577 212.203 184.105 212.885 184.282C213.461 184.431 214.05 184.278 214.531 184.072C215.519 183.648 216.681 182.727 217.857 181.487C226.841 172.022 244.708 163.469 264.827 157.833C284.914 152.206 307.03 149.548 324.377 151.716L324.501 150.723L324.377 151.716C336.384 153.215 352.84 158.594 366.873 164.833C373.882 167.95 380.254 171.266 385.137 174.397C387.579 175.963 389.632 177.471 391.2 178.873C392.785 180.289 393.807 181.537 394.28 182.569L395.189 182.153L394.28 182.569C394.685 183.456 394.569 184.741 393.593 186.532C392.63 188.298 390.935 190.357 388.591 192.623C383.911 197.146 376.827 202.326 368.461 207.452C351.728 217.705 330.066 227.619 312.723 231.569C300.728 234.3 281.536 234.456 265.06 232.916C256.831 232.147 249.333 230.96 243.794 229.48C241.019 228.738 238.78 227.935 237.197 227.097C236.406 226.678 235.811 226.268 235.4 225.878C234.987 225.486 234.806 225.16 234.747 224.911L234.746 224.91C234.551 224.097 234.69 223.821 234.764 223.733C234.86 223.62 235.192 223.393 236.224 223.383C238.257 223.364 241.87 224.188 247.655 225.969C289.861 238.962 343.678 225.943 379.975 194.057L380.011 194.025C382.645 191.712 384.665 189.938 386.067 188.512C387.435 187.12 388.403 185.883 388.641 184.636C388.911 183.223 388.219 182.106 387.186 181.118C386.189 180.163 384.661 179.124 382.77 177.837L382.687 177.781C356.532 159.985 323.41 153.004 291.629 156.004C259.849 159.004 229.32 171.994 208.378 194.255L208.311 194.327C206.721 196.017 205.432 197.387 204.611 198.671C203.74 200.035 203.343 201.377 203.603 202.989C203.849 204.518 204.674 206.203 205.985 208.31C207.302 210.427 209.188 213.09 211.666 216.589L211.687 216.619C246.351 265.554 243.145 335.273 203.745 386.555C201.472 389.514 199.711 391.562 198.131 392.725C197.355 393.297 196.666 393.62 196.024 393.748C195.395 393.873 194.752 393.823 194.037 393.555C192.548 392.996 190.773 391.507 188.404 388.728C186.059 385.978 183.239 382.099 179.63 376.946L178.811 377.52L179.63 376.946C165.436 356.678 158.176 329.739 157.963 302.31C157.75 274.884 164.584 247.061 178.469 225.042L177.624 224.508L178.469 225.042C180.398 221.984 181.87 219.633 182.695 218.031C183.096 217.255 183.408 216.537 183.496 215.956C183.54 215.67 183.557 215.245 183.331 214.849C183.066 214.383 182.615 214.201 182.23 214.164C181.884 214.131 181.532 214.203 181.226 214.295C180.904 214.391 180.545 214.535 180.157 214.715C179.381 215.075 178.402 215.617 177.215 216.325C174.838 217.742 171.525 219.885 167.155 222.723C129.571 247.125 75.8305 252.159 35.5662 235.072C27.6127 231.697 18.9138 226.754 12.3095 222.199C9.00499 219.92 6.2544 217.757 4.39095 215.955C3.45605 215.051 2.77609 214.268 2.35966 213.63C1.90778 212.938 1.90566 212.63 1.91511 212.585ZM70.3849 265.857L70.3849 265.856C69.3916 263.263 69.6521 260.566 70.3227 259.212C70.4855 258.883 70.6461 258.687 70.7662 258.588C70.8231 258.541 70.8611 258.524 70.8775 258.518C70.8855 258.515 70.8895 258.514 70.8901 258.514L70.8915 258.514C70.8923 258.514 70.8972 258.515 70.9069 258.518C70.9168 258.521 70.9335 258.527 70.957 258.539C71.0048 258.565 71.0796 258.616 71.1767 258.714C71.3759 258.916 71.6258 259.273 71.8938 259.859L72.8031 259.442L71.8939 259.859C84.4334 287.255 108.212 313.605 130.873 325.114L131.326 324.223L130.874 325.114L131.162 325.261C138.943 329.212 142.692 331.115 144.394 332.331C145.273 332.959 145.332 333.223 145.338 333.258C145.342 333.278 145.348 333.339 145.296 333.504C145.241 333.676 145.155 333.869 145.021 334.17L144.995 334.228L144.995 334.229L144.994 334.23C144.986 334.248 144.966 334.294 144.829 334.348C144.665 334.412 144.38 334.464 143.929 334.448C143.027 334.416 141.735 334.124 140.094 333.559C136.832 332.435 132.466 330.33 127.633 327.59C117.971 322.111 106.613 314.187 98.7606 306.783C94.2459 302.526 88.1184 294.834 82.6134 286.892C77.1026 278.941 72.302 270.865 70.3849 265.857ZM260.926 320.479C283.544 308.272 308.913 280.769 320.225 256.218C322.005 252.355 323.719 249.222 325.213 246.912C326.736 244.557 327.953 243.18 328.71 242.684C328.723 242.676 328.735 242.668 328.746 242.661C328.755 242.725 328.762 242.8 328.767 242.888C328.824 244.003 328.431 246.181 327.313 249.631C325.115 256.407 319.891 265.221 313.072 274.538C306.268 283.835 297.931 293.559 289.579 302.148C281.222 310.742 272.88 318.167 266.07 322.885C262.657 325.248 259.683 326.895 257.317 327.686C254.882 328.501 253.458 328.298 252.718 327.602C252.11 327.03 251.942 326.72 251.912 326.554C251.902 326.497 251.867 326.284 252.359 325.774C252.859 325.255 253.743 324.601 255.175 323.722C256.591 322.853 258.476 321.801 260.926 320.479ZM329.006 242.534C329.006 242.534 329 242.536 328.989 242.537C329.001 242.534 329.006 242.533 329.006 242.534Z" stroke="white" stroke-width="2"></path> </svg> 