<?xml version="1.0" encoding="UTF-8"?> <svg xmlns="http://www.w3.org/2000/svg" width="193" height="189" viewBox="0 0 193 189" fill="none"> <path d="M120.055 4.11273C119.671 3.85141 119.182 3.57906 118.545 3.57026C117.93 3.56177 117.343 3.80109 116.742 4.16117C115.567 4.86482 113.838 6.34975 110.932 8.91996C87.0346 30.0579 80.2379 60.3709 92.7302 90.0212L93.6517 89.6329L92.7302 90.0212C93.2368 91.2238 94.1604 91.9451 95.38 92.073C96.4942 92.1898 97.7273 91.7974 98.9552 91.1588C101.434 89.8695 104.417 87.2966 107.454 84.012C113.546 77.422 120.134 67.6604 123.659 58.544C126.818 50.3747 127.868 38.1689 127.215 27.4161C126.888 22.0276 126.13 16.9509 124.97 12.8787C124.39 10.8428 123.702 9.03327 122.903 7.55284C122.109 6.08254 121.17 4.87161 120.055 4.11273ZM120.055 4.11273L119.493 4.93937L120.055 4.11267C120.055 4.1127 120.055 4.1127 120.055 4.11273ZM52.3029 71.2793C71.6559 74.6416 77.9105 78.7471 70.8393 83.4465C59.0195 91.3016 44.3788 92.1909 30.7891 85.8785L26.0372 85.3808C26.0372 85.3808 26.0375 85.3816 26.038 85.3831M52.3029 71.2793L52.4741 70.2941C57.3336 71.1384 61.3924 72.0328 64.6378 72.9779C67.8676 73.9185 70.3553 74.9269 72.0289 76.0255C73.6663 77.1002 74.804 78.4584 74.6431 80.1314C74.4909 81.7128 73.2009 83.0777 71.3927 84.2793C59.264 92.3397 44.2518 93.2345 30.3679 86.7854L30.3677 86.7854C28.8492 86.0798 27.3572 85.7724 26.4364 85.7928C26.3967 85.7936 26.359 85.7951 26.3232 85.7971M52.3029 71.2793L52.474 70.2941C42.1926 68.5081 28.8119 69.8126 18.8578 72.4386C13.8932 73.7483 9.6651 75.416 7.08475 77.2701C5.80685 78.1883 4.79569 79.2489 4.41324 80.46C3.99656 81.7796 4.38919 83.0549 5.4376 84.1457C24.6596 104.146 53.4393 110.959 79.3627 101.635L79.0242 100.694L79.3627 101.635C85.2617 99.5132 89.0601 97.8736 91.0961 96.2931C92.1288 95.4914 92.8522 94.5971 93.0515 93.5297C93.2536 92.4472 92.8714 91.4363 92.2581 90.5135C84.0422 78.1507 83.5323 60.0031 88.8658 42.8258C94.1945 25.6642 105.279 9.73604 119.887 1.81694L119.887 1.81688C119.913 1.80286 119.919 1.8004 119.957 1.80964C120.022 1.82567 120.163 1.88573 120.378 2.0746C120.818 2.45973 121.351 3.18916 121.939 4.28842C123.103 6.46185 124.314 9.75842 125.395 13.6229C127.558 21.3514 129.133 31.0954 128.833 38.1361C128.487 46.2603 125.4 56.56 121.082 65.7105C116.748 74.8949 111.284 82.6916 106.328 85.9848C105.766 86.3585 105.262 86.8469 104.89 87.3455C104.55 87.802 104.197 88.4327 104.201 89.0796L104.201 89.0802C104.204 89.5393 104.413 90.0298 104.917 90.2939C105.322 90.5071 105.756 90.4801 106.052 90.4278C106.671 90.3179 107.397 89.9638 108.118 89.4888C113.342 86.0508 122.707 83.9652 132.909 83.5188C143.078 83.0739 153.855 84.2674 161.808 87.2038C167.305 89.233 174.513 93.6008 180.494 98.1267C183.478 100.385 186.128 102.66 188.086 104.674C189.065 105.682 189.857 106.609 190.428 107.423C191.012 108.255 191.314 108.896 191.404 109.338L191.404 109.339C191.451 109.572 191.379 110.011 190.754 110.712C190.147 111.392 189.158 112.155 187.807 112.963C185.115 114.573 181.196 116.242 176.65 117.75C167.556 120.767 156.172 123.069 147.529 123.022C141.58 122.989 132.465 120.944 124.793 118.38C120.967 117.101 117.551 115.709 115.107 114.404C113.881 113.75 112.94 113.138 112.319 112.598C112.009 112.328 111.807 112.1 111.689 111.92C111.568 111.737 111.569 111.658 111.569 111.663L111.569 111.662C111.568 111.622 111.569 111.587 111.571 111.557C111.631 111.563 111.714 111.575 111.823 111.599C112.704 111.797 114.269 112.548 116.843 114.05C135.706 125.052 163.027 124.82 184.038 113.575L184.079 113.553C185.577 112.752 186.751 112.123 187.595 111.589C188.399 111.08 189.127 110.527 189.448 109.802C189.839 108.924 189.527 108.119 189.108 107.476C188.714 106.873 188.077 106.18 187.341 105.381L187.28 105.315C176.691 93.8091 161.548 86.7406 145.949 84.6175C130.351 82.4946 114.205 85.3044 101.61 93.6749L101.537 93.7231C100.618 94.3336 99.8159 94.8667 99.2464 95.4217C98.6098 96.0422 98.1976 96.75 98.1312 97.6997C98.0708 98.5648 98.3071 99.5429 98.7008 100.703C99.0982 101.875 99.7062 103.367 100.493 105.299L100.507 105.332L101.433 104.955L100.507 105.332C111.502 132.318 102.291 164.998 77.9307 184.952C76.5115 186.114 75.4946 186.85 74.6863 187.196C74.2983 187.363 74.0094 187.416 73.7847 187.408C73.5733 187.401 73.3633 187.339 73.1244 187.18C72.5926 186.826 71.9614 186.022 71.1444 184.44C70.3443 182.89 69.439 180.746 68.2906 177.884L67.363 178.256L68.2906 177.884C63.8221 166.747 63.3548 153.191 66.292 140.156C69.2285 127.124 75.5488 114.701 84.5476 105.821L84.5477 105.821C85.8014 104.583 86.7851 103.607 87.3753 102.914C87.6529 102.588 87.9334 102.224 88.0742 101.872C88.143 101.699 88.246 101.368 88.1342 100.991C87.9997 100.537 87.6481 100.3 87.3586 100.203C87.1055 100.118 86.8531 100.116 86.6713 100.127C86.4733 100.139 86.26 100.173 86.0418 100.219C85.6051 100.31 85.0574 100.466 84.4073 100.672C83.1035 101.087 81.2737 101.745 78.8754 102.611C58.377 110.011 32.3501 106.446 15.1811 93.9092C11.793 91.4349 8.21797 88.1311 5.59442 85.2439C4.28072 83.7981 3.22971 82.4831 2.56269 81.4487C2.22678 80.9277 2.01218 80.5144 1.90304 80.2147C1.86313 80.1051 1.84473 80.0313 1.8361 79.9866C1.83797 79.9841 1.83989 79.9814 1.84188 79.9788C1.87902 79.9288 1.93141 79.8664 2.00139 79.7927C2.14213 79.6445 2.33261 79.4732 2.56446 79.2918C3.02939 78.9278 3.61157 78.5613 4.18558 78.2881C5.48129 77.6714 8.37328 76.2437 10.6156 75.1137C28.305 66.2003 54.5032 66.3144 72.1076 75.3815C74.0865 76.4007 75.5136 77.1547 76.4821 77.7936C77.5078 78.4701 77.7465 78.8513 77.7872 79.0244C77.8059 79.1035 77.8322 79.3767 77.1834 80.1049C76.5609 80.8036 75.5463 81.6709 74.0841 82.8819C67.8682 88.0298 57.3643 91.025 47.5314 91.4917C42.6327 91.7243 37.9685 91.325 34.1591 90.2878C30.533 89.3005 27.8147 87.773 26.3232 85.7971M52.3029 71.2793L26.038 85.3831M26.3232 85.7971C26.2364 85.6821 26.1538 85.5656 26.0754 85.4476C26.0509 85.4108 26.0408 85.3896 26.038 85.3831M26.3232 85.7971C26.157 85.8063 26.0326 85.8266 25.9467 85.8494C25.8831 85.8663 25.8583 85.8798 25.8582 85.8797C25.8582 85.8797 25.8733 85.8713 25.8967 85.8497C25.9768 85.7757 26.0528 85.6374 26.0516 85.4805C26.0516 85.4746 26.0514 85.469 26.0512 85.4637C26.0491 85.4182 26.0408 85.3908 26.038 85.3831M119.493 4.93937C126.941 10.0084 128.898 42.222 122.726 58.1834C115.784 76.1405 96.6752 96.8091 93.6517 89.6329C81.324 60.3732 88.0224 30.5192 111.595 9.66899M97.5504 102.981C109.78 129.707 100.957 164.885 77.5274 182.814M72.1393 182.261C58.7882 157.823 69.0857 117.356 92.8768 100.769M118.93 5.76601L118.93 5.76607C119.677 6.27446 120.428 7.17902 121.143 8.50296C121.852 9.8168 122.492 11.4803 123.046 13.4267C124.155 17.3189 124.897 22.2437 125.219 27.5374C125.863 38.1491 124.806 50.0308 121.794 57.8228L122.726 58.1834L121.794 57.8228C118.376 66.6635 111.938 76.2147 105.985 82.6543C102.999 85.8844 100.203 88.2554 98.0325 89.3844C96.9354 89.9549 96.1253 90.1402 95.5886 90.0839C95.1574 90.0387 94.8224 89.8361 94.5732 89.2447C82.4101 60.3755 89.0103 30.9805 112.257 10.418L111.595 9.66899L112.257 10.418C115.23 7.78823 116.793 6.46159 117.77 5.87705C118.244 5.59304 118.447 5.5691 118.518 5.57007C118.566 5.57075 118.657 5.58056 118.93 5.76601ZM96.641 103.397L96.6411 103.397C108.676 129.696 99.9805 164.373 76.9196 182.02C76.0064 182.719 75.3776 183.199 74.8939 183.503C74.5157 183.74 74.3404 183.793 74.2841 183.805C74.247 183.776 74.1682 183.704 74.0425 183.532C73.7826 183.179 73.4818 182.633 73.0169 181.782L73.0169 181.782C66.4966 169.847 65.7116 153.897 69.5488 138.818C73.385 123.743 81.7975 109.713 93.4486 101.59C94.1709 101.086 94.6181 100.778 94.9541 100.612C95.0463 100.566 95.1091 100.542 95.1488 100.53C95.2061 100.588 95.334 100.739 95.538 101.103C95.8232 101.611 96.159 102.343 96.641 103.397ZM74.3096 183.821C74.3096 183.821 74.3069 183.82 74.3014 183.817C74.3068 183.819 74.3095 183.82 74.3096 183.821ZM95.2055 100.517C95.2051 100.518 95.2009 100.518 95.1934 100.518C95.202 100.517 95.2058 100.517 95.2055 100.517ZM92.305 99.9487L92.3048 99.9488C80.1649 108.413 71.5332 122.91 67.6106 138.325C63.6891 153.735 64.4308 170.237 71.2617 182.741C71.2617 182.741 71.2617 182.741 71.2617 182.741L71.2953 182.802C71.7168 183.574 72.0815 184.242 72.431 184.717C72.7881 185.203 73.292 185.719 74.0617 185.798C74.7618 185.87 75.409 185.541 75.9575 185.196C76.5293 184.837 77.2316 184.3 78.0922 183.641L78.1351 183.609C101.933 165.397 110.885 129.717 98.4598 102.565C98.4597 102.565 98.4597 102.565 98.4597 102.565L98.4395 102.521C97.9823 101.521 97.6127 100.713 97.2824 100.125C96.9696 99.567 96.5749 98.9762 95.9711 98.6904C95.2638 98.3556 94.5859 98.5633 94.069 98.8184C93.5804 99.0596 93.0075 99.4589 92.3665 99.9058L92.305 99.9487ZM45.0479 51.6617L44.3069 50.9912L45.0479 51.6617C49.4649 46.7798 57.7906 40.926 65.956 36.4087C70.0273 34.1563 74.023 32.2562 77.428 30.9864C79.1309 30.3514 80.6696 29.8802 81.9855 29.5993C83.2805 29.3229 84.2956 29.2453 85.0172 29.3376C83.9378 30.0158 81.7885 30.8929 78.7079 31.773C67.4427 34.9911 54.0648 43.3001 45.6502 52.2901L46.3802 52.9735L45.6501 52.2901C43.4379 54.6537 41.6661 56.3298 40.3796 57.38C41.3244 56.0012 42.8591 54.0809 45.0479 51.6617ZM85.77 29.5258C85.7698 29.5259 85.767 29.5243 85.7622 29.5209C85.7678 29.5241 85.7702 29.5258 85.77 29.5258ZM111.593 111.411C111.593 111.411 111.592 111.414 111.59 111.418C111.592 111.413 111.593 111.41 111.593 111.411ZM86.7275 102.13C86.1928 102.784 85.2039 103.768 83.8452 105.109L86.7275 102.13ZM86.8339 102.123C86.8336 102.123 86.8317 102.123 86.8284 102.123C86.8324 102.123 86.8342 102.123 86.8339 102.123ZM28.5704 112.821L28.5704 112.821C28.4334 111.823 28.6723 110.901 28.9647 110.352C31.924 124.897 40.3748 140.203 49.9984 148.298L49.9984 148.298L50.0102 148.308C53.381 151.143 54.9401 152.454 55.5913 153.194C55.6413 153.251 55.6811 153.3 55.7126 153.34C55.6936 153.336 55.6728 153.33 55.6501 153.324C55.2961 153.228 54.7629 152.977 54.0569 152.533C52.6641 151.657 50.8416 150.19 48.8503 148.353C44.8719 144.682 40.3645 139.666 37.4705 135.3C35.8201 132.811 33.7687 128.496 32.0308 124.103C30.2892 119.701 28.9184 115.36 28.5704 112.821ZM29.297 109.911C29.2969 109.913 29.2888 109.92 29.2727 109.928C29.289 109.914 29.2971 109.91 29.297 109.911ZM55.8909 153.365C55.8916 153.366 55.8843 153.367 55.8668 153.366C55.8814 153.364 55.8902 153.364 55.8909 153.365ZM162.294 69.6284L161.354 69.9713L136.327 39.6405L136.888 38.8127C136.888 38.8126 136.888 38.8126 136.888 38.8125C136.788 38.7449 136.71 38.6855 136.649 38.6347C136.657 38.6296 136.665 38.6244 136.672 38.6192L136.675 38.6178C136.702 38.5996 136.789 38.5404 137.105 38.6075C137.467 38.6842 138.016 38.9066 138.852 39.3882C140.516 40.347 143.03 42.1595 146.98 45.1887C148.902 46.6628 151.284 49.4873 153.744 53.0225C156.188 56.5345 158.655 60.6681 160.755 64.6858C162.859 68.7092 164.578 72.5823 165.544 75.5754C166.029 77.0796 166.307 78.3079 166.366 79.1987C166.387 79.4998 166.38 79.7379 166.358 79.9207C166.273 79.7743 166.178 79.5929 166.068 79.3691C165.344 77.8848 164.25 74.9871 162.294 69.6284ZM166.24 80.3266C166.24 80.3265 166.24 80.3262 166.241 80.3256C166.241 80.3255 166.241 80.3254 166.241 80.3254C166.24 80.3263 166.24 80.3266 166.24 80.3266ZM113.036 160.679C125.302 157.343 140.565 146.98 148.762 136.443C150.031 134.812 151.182 133.527 152.13 132.612C152.432 132.321 152.703 132.078 152.943 131.876C152.728 132.317 152.433 132.86 152.039 133.513C150.278 136.43 146.854 140.011 142.572 143.688C138.31 147.349 133.267 151.046 128.343 154.203C123.411 157.364 118.634 159.958 114.901 161.434C113.027 162.175 111.476 162.609 110.33 162.716C109.111 162.83 108.724 162.551 108.617 162.389C108.561 162.306 108.523 162.241 108.495 162.191C108.497 162.19 108.499 162.188 108.501 162.187C108.74 162.033 109.182 161.836 109.958 161.578C110.716 161.325 111.721 161.037 113.036 160.679ZM154.154 131.077C154.154 131.078 154.144 131.081 154.128 131.083C154.147 131.078 154.155 131.076 154.154 131.077ZM108.375 162.283C108.375 162.283 108.376 162.282 108.378 162.28C108.376 162.282 108.375 162.283 108.375 162.283Z" stroke="white" stroke-width="2"></path> </svg> 