<?xml version="1.0" encoding="UTF-8"?> <svg xmlns="http://www.w3.org/2000/svg" width="271" height="280" viewBox="0 0 271 280" fill="none"> <path d="M224.037 107.607C221.606 111.39 216.588 121.452 212.865 129.969L213.781 130.37L212.865 129.969C193.875 173.428 162.088 203.125 125.676 211.713C125.383 211.782 125.096 211.85 124.813 211.917C121.029 212.81 118.206 213.477 116.098 213.826C114.968 214.014 114.087 214.102 113.403 214.093C112.713 214.084 112.304 213.976 112.059 213.842C111.701 213.646 111.38 213.208 111.418 211.641C111.452 210.206 111.777 208.221 112.226 205.468C112.258 205.275 112.29 205.079 112.322 204.878C114.718 190.173 114.936 172.557 112.933 156.133C112.5 152.582 112.184 149.982 112.11 147.909C112.036 145.849 112.207 144.4 112.696 143.142C113.184 141.886 114.024 140.729 115.444 139.313C116.876 137.886 118.832 136.258 121.509 134.032C140.671 118.102 166.152 109.26 202.778 105.991C207.489 105.57 212.266 104.998 216.173 104.414C220.029 103.838 223.16 103.234 224.485 102.724L224.126 101.791L224.485 102.724C225.864 102.194 226.831 101.861 227.465 101.732M224.037 107.607L224.879 108.148L224.037 107.608C224.037 107.607 224.037 107.607 224.037 107.607ZM224.037 107.607C225.316 105.616 226.251 104.114 226.852 103.007C227.145 102.469 227.344 102.05 227.465 101.732M227.465 101.732C227.504 101.724 227.541 101.717 227.578 101.71C227.846 101.663 227.945 101.678 227.946 101.676C227.946 101.676 227.94 101.674 227.93 101.671C227.881 101.654 227.785 101.606 227.702 101.501C227.621 101.398 227.601 101.302 227.597 101.268C227.596 101.263 227.596 101.263 227.595 101.269C227.593 101.296 227.58 101.424 227.475 101.704C227.472 101.714 227.469 101.723 227.465 101.732ZM64.1764 218.88L63.4271 218.218C65.397 215.989 67.2113 214.532 69.1057 214.282C71.1113 214.016 72.816 215.129 74.4399 216.956L64.1764 218.88ZM64.1764 218.88L63.427 218.218C62.2948 219.499 61.4087 220.528 60.8856 221.291C60.634 221.657 60.3939 222.063 60.2944 222.464C60.242 222.675 60.2088 222.96 60.2997 223.266C60.3991 223.6 60.616 223.854 60.8816 224.016C61.3221 224.285 61.8613 224.28 62.2401 224.252C62.6785 224.22 63.211 224.124 63.8215 223.985C65.047 223.706 66.7423 223.218 68.9319 222.569C71.4088 221.836 73.1796 221.158 74.1512 220.39M64.1764 218.88L74.1512 220.39M74.1512 220.39C74.6561 219.991 75.1031 219.443 75.1513 218.715M74.1512 220.39L75.1513 218.715M75.1513 218.715C75.1985 218 74.84 217.406 74.4404 216.957L75.1513 218.715ZM43.8566 63.1606C72.5133 83.2327 93.3601 108.479 100.264 131.474C103.089 140.885 103.089 140.885 94.0323 152.687M58.235 197.381C26.8451 168.489 13.4733 126.968 19.4806 77.0577M20.926 52.033C19.7713 42.5197 19.8291 42.4905 26.349 49.3407M213.781 130.37C194.702 174.034 162.702 204.008 125.906 212.687M111.94 156.254C110.217 142.12 110.217 142.12 120.87 133.263C140.245 117.156 165.95 108.274 202.689 104.995M104.754 207.753C102.598 216.995 102.598 216.995 94.6943 218.017C86.2697 219.105 72.6023 212.648 72.1125 207.35M105.149 229.195C106.197 236.059 104.757 236.139 99.2473 229.525M27.0734 48.6513L27.0733 48.6512C25.4553 46.9512 24.1973 45.6341 23.2568 44.7896C22.7911 44.3714 22.3502 44.0199 21.9448 43.7973C21.5904 43.6027 20.9565 43.3363 20.3148 43.6549C19.6855 43.9674 19.5016 44.6218 19.4308 45.0189C19.3492 45.4769 19.342 46.0454 19.3703 46.6802C19.4275 47.961 19.6466 49.7917 19.9332 52.1532C20.1367 53.8344 20.0896 57.4546 19.8271 62.0017C19.5665 66.5167 19.0991 71.8606 18.4878 76.9382L19.4806 77.0577L18.4878 76.9382C12.4498 127.103 25.887 168.966 57.5577 198.116C59.3814 199.795 60.8763 201.105 62.1102 202.049C63.3214 202.976 64.3765 203.628 65.31 203.883C65.7953 204.016 66.2942 204.054 66.7838 203.932C67.2826 203.808 67.6917 203.537 68.0205 203.18C68.6335 202.515 69.0054 201.506 69.3023 200.398C70.4474 196.124 74.7648 187.029 79.8788 177.585C84.9785 168.168 90.7819 158.564 94.8255 153.296L94.0323 152.687L94.8256 153.296L94.8457 153.269C97.0927 150.341 98.8051 148.11 100.051 146.28C101.299 144.444 102.13 142.942 102.563 141.466C103.426 138.528 102.637 135.9 101.301 131.45L101.222 131.187L101.222 131.186C94.2295 107.897 73.1897 82.4856 44.4303 62.3415L44.4303 62.3414C37.2451 57.3098 29.4429 51.1415 27.0734 48.6513ZM21.9187 51.9129L21.9187 51.9126C21.628 49.5176 21.4213 47.7773 21.3683 46.591C21.3541 46.2729 21.3522 46.0139 21.3597 45.8061C21.5151 45.9252 21.7007 46.0803 21.9206 46.2777C22.7885 47.057 23.9827 48.305 25.6245 50.03C28.1474 52.6812 36.1015 58.9506 43.2829 63.9796C71.8369 83.9798 92.4906 109.061 99.3065 131.761C100.747 136.561 101.322 138.595 100.644 140.902C100.299 142.078 99.6072 143.376 98.3972 145.154C97.1876 146.932 95.5103 149.118 93.2389 152.078C89.0955 157.476 83.2314 167.194 78.1201 176.633C73.0232 186.045 68.5863 195.343 67.3704 199.88C67.0791 200.968 66.8039 201.549 66.5497 201.825C66.4448 201.938 66.3653 201.975 66.3003 201.992C66.2262 202.01 66.086 202.022 65.837 201.954C65.302 201.807 64.5071 201.365 63.3258 200.461C62.1673 199.574 60.7272 198.315 58.9122 196.645C27.8033 168.012 14.4967 126.833 20.4735 77.1772C21.0896 72.0588 21.5607 66.6737 21.8238 62.117C22.085 57.5925 22.1469 53.7984 21.9187 51.9129ZM21.4366 45.2266C21.4368 45.2272 21.4348 45.2333 21.4296 45.2435C21.4337 45.2312 21.4363 45.2261 21.4366 45.2266ZM20.8812 45.5014C20.8694 45.4988 20.8631 45.4963 20.8628 45.4958C20.8626 45.4952 20.8685 45.4965 20.8812 45.5014ZM225.72 108.689L225.72 108.688C226.996 106.702 227.969 105.142 228.61 103.962C228.93 103.373 229.183 102.852 229.35 102.401C229.507 101.978 229.637 101.495 229.583 101.033C229.553 100.781 229.465 100.506 229.272 100.262C229.078 100.016 228.828 99.865 228.582 99.78C228.135 99.6262 227.641 99.6688 227.232 99.7406C226.379 99.8902 225.199 100.307 223.767 100.857C222.687 101.273 219.792 101.851 215.877 102.436C212.013 103.014 207.275 103.581 202.6 103.999C165.748 107.289 139.819 116.21 120.23 132.494L120.87 133.263L120.23 132.494L120.192 132.527C117.561 134.714 115.535 136.398 114.032 137.896C112.51 139.413 111.46 140.8 110.832 142.418C110.204 144.033 110.033 145.788 110.111 147.98C110.188 150.149 110.516 152.834 110.941 156.327L110.947 156.375C112.93 172.632 112.71 190.058 110.348 204.557C110.311 204.784 110.275 205.008 110.239 205.228C109.804 207.89 109.457 210.012 109.418 211.593C109.377 213.272 109.67 214.814 111.099 215.596C111.748 215.951 112.527 216.081 113.377 216.093C114.234 216.104 115.247 215.995 116.425 215.799C118.603 215.438 121.493 214.756 125.234 213.872C125.529 213.803 125.83 213.732 126.135 213.66C163.317 204.89 195.528 174.639 214.698 130.77C218.414 122.268 223.38 112.33 225.72 108.689ZM105.843 158.759L105.843 158.759C106.65 164.884 106.792 174.268 106.399 183.56C106.005 192.856 105.078 201.958 103.78 207.526C103.237 209.853 102.843 211.537 102.433 212.803C102.023 214.068 101.632 214.791 101.165 215.267C100.715 215.727 100.103 216.048 99.0532 216.312C97.9788 216.582 96.566 216.766 94.5661 217.025C90.6138 217.535 85.2911 216.269 80.8549 214.174C78.6497 213.132 76.7215 211.912 75.3317 210.661C73.9102 209.382 73.1955 208.202 73.1082 207.257C73.0837 206.992 73.129 206.511 73.3023 205.776C73.4705 205.063 73.7403 204.185 74.1057 203.16C74.836 201.11 75.9251 198.534 77.2728 195.617C79.9665 189.785 83.6642 182.652 87.5081 175.758C91.3526 168.863 95.3317 162.229 98.5856 157.393C100.216 154.971 101.646 153.026 102.776 151.728C103.338 151.083 103.795 150.632 104.143 150.364C104.308 150.808 104.498 151.46 104.696 152.288C105.098 153.963 105.514 156.257 105.843 158.759ZM94.8224 219.008L94.8225 219.008L94.8868 219C96.8084 218.752 98.3387 218.554 99.5412 218.251C100.781 217.939 101.787 217.49 102.594 216.667C103.384 215.861 103.892 214.787 104.335 213.42C104.775 212.064 105.187 210.298 105.716 208.028L105.728 207.98C107.069 202.227 108.002 192.976 108.397 183.645C108.792 174.31 108.655 164.792 107.826 158.498C107.491 155.946 107.063 153.581 106.641 151.822C106.431 150.946 106.216 150.195 106.007 149.638C105.903 149.363 105.788 149.1 105.658 148.883C105.593 148.775 105.507 148.65 105.396 148.536C105.294 148.43 105.104 148.264 104.822 148.188C104.409 148.078 104.027 148.171 103.75 148.282C103.466 148.397 103.193 148.572 102.941 148.765C102.434 149.153 101.869 149.723 101.267 150.415C100.056 151.806 98.5714 153.832 96.9263 156.277C93.63 161.176 89.621 167.862 85.7613 174.784C81.9009 181.707 78.1781 188.887 75.4571 194.778C74.0975 197.721 72.9807 200.359 72.2217 202.489C71.8425 203.553 71.5469 204.506 71.3557 205.317C71.1695 206.107 71.0616 206.844 71.1167 207.441L72.1125 207.35L71.1167 207.442C71.2743 209.146 72.4517 210.76 73.9939 212.148C75.5677 213.564 77.6748 214.884 80.0007 215.982C84.6268 218.168 90.35 219.586 94.8224 219.008ZM72.9454 218.286L72.9459 218.286C73.0872 218.445 73.1341 218.54 73.1491 218.58C73.1271 218.617 73.0663 218.698 72.9107 218.821C72.287 219.314 70.8889 219.904 68.3641 220.652L68.3639 220.652C66.1608 221.304 64.5291 221.773 63.3779 222.035C63.1271 222.092 62.9063 222.137 62.7132 222.172C63.176 221.546 63.9132 220.688 64.9257 219.543C66.876 217.336 68.2628 216.411 69.368 216.264C70.3617 216.133 71.455 216.608 72.9454 218.286ZM73.1606 218.556C73.1607 218.556 73.1602 218.558 73.1587 218.562C73.1597 218.558 73.1605 218.556 73.1606 218.556ZM106.138 229.044L106.137 229.044C105.759 226.566 104.888 224.652 103.221 223.506C101.576 222.376 99.3797 222.152 96.7216 222.504C96.084 222.588 95.4297 222.932 95.1876 223.699C94.9904 224.324 95.1573 224.997 95.3812 225.561C95.8481 226.736 96.9225 228.296 98.4788 230.165L98.479 230.165C99.8636 231.827 101.022 233.105 101.967 233.968C102.439 234.398 102.885 234.751 103.304 234.998C103.702 235.233 104.191 235.442 104.713 235.413C105.327 235.378 105.786 235.031 106.059 234.562C106.299 234.15 106.398 233.647 106.44 233.157C106.524 232.161 106.401 230.769 106.138 229.044ZM97.2399 224.822C97.1789 224.668 97.1446 224.553 97.1252 224.469C99.5146 224.171 101.067 224.453 102.088 225.155C103.108 225.855 103.822 227.13 104.16 229.346C104.421 231.053 104.51 232.245 104.447 232.988C104.435 233.128 104.419 233.238 104.402 233.322C104.377 233.308 104.35 233.293 104.32 233.276C104.069 233.127 103.737 232.875 103.315 232.49C102.474 231.722 101.386 230.53 100.016 228.885C98.474 227.034 97.581 225.681 97.2399 224.822ZM6.36184 16.4769L6.36182 16.4769C4.68229 12.4232 3.28664 8.6241 2.39068 5.77404C1.94146 4.34508 1.62513 3.17752 1.45917 2.34497C1.38105 1.95309 1.34269 1.66656 1.33292 1.47619C1.69542 1.17067 1.8543 1.1865 1.92591 1.20144C2.12474 1.24294 2.57679 1.49284 3.36106 2.54138C4.88647 4.58077 7.0531 8.76272 10.6803 16.2821L10.6803 16.2821C15.9466 27.1986 20.3965 34.8294 26.0626 41.5129C31.7281 48.1958 38.5719 53.8871 48.5671 60.9741C76.5298 80.8005 92.327 99.2131 102.058 123.16L102.984 122.784L102.058 123.161C102.649 124.616 103.175 125.933 103.648 127.117C104.418 129.046 105.046 130.619 105.584 131.855C106.02 132.856 106.415 133.679 106.8 134.319C107.175 134.945 107.595 135.49 108.117 135.833C108.7 136.216 109.339 136.299 109.984 136.121C110.561 135.961 111.107 135.602 111.623 135.194C112.26 134.692 113.03 133.961 113.943 133.095C114.483 132.582 115.074 132.022 115.717 131.433C134.912 113.846 163.308 103.409 200.514 100.431C210.289 99.6486 218.122 98.1831 225.917 95.3046C233.704 92.4288 241.408 88.159 250.939 81.8187C256.511 78.1125 261.006 75.5014 264.281 73.9071C265.922 73.1084 267.23 72.5778 268.199 72.289C268.61 72.1665 268.94 72.0936 269.196 72.0587C268.916 72.5537 268.352 73.2796 267.421 74.2463C265.383 76.3613 261.833 79.3792 256.593 83.2381C238.374 96.655 228.612 108.536 220.353 127.393L221.269 127.794L220.353 127.393C209.036 153.235 196.445 172.74 181.231 187.274C166.027 201.8 148.16 211.404 126.226 217.38C121.824 218.579 117.765 219.851 114.768 220.936C113.273 221.477 112.022 221.98 111.12 222.41C110.672 222.623 110.281 222.832 109.982 223.031C109.834 223.131 109.682 223.245 109.551 223.374C109.439 223.484 109.245 223.699 109.162 224.011C108.944 224.823 108.972 226.025 109.115 227.384C109.263 228.786 109.553 230.5 109.95 232.42C110.744 236.262 111.981 240.993 113.424 245.826C116.295 255.447 120.036 265.658 122.794 270.077L122.794 270.078C123.857 271.781 124.391 274.236 124.359 276.186C124.342 277.17 124.183 277.901 123.971 278.309C123.932 278.386 123.896 278.44 123.866 278.479C123.858 278.469 123.851 278.459 123.843 278.448C123.647 278.181 123.377 277.779 123.038 277.246C122.363 276.183 121.448 274.653 120.357 272.765C118.176 268.991 115.311 263.818 112.29 258.159C106.941 248.141 101.952 240.391 96.8521 234.884C91.7424 229.365 86.4755 226.049 80.5788 224.998C74.6917 223.95 68.3256 225.188 61.066 228.484C53.8117 231.777 45.5905 237.16 35.9559 244.505C33.0529 246.718 30.2791 248.687 28.1528 250.075C27.0871 250.771 26.1992 251.311 25.5462 251.662C25.2169 251.838 24.9704 251.955 24.8029 252.019C24.7919 252.024 24.7815 252.027 24.7717 252.031C24.1067 251.819 24.0048 251.569 23.9804 251.459C23.9285 251.223 23.9996 250.675 24.6617 249.677C25.9493 247.735 28.8929 244.944 33.6392 241.273C41.2544 235.384 47.1617 230.639 51.5511 226.669C55.9265 222.711 58.8667 219.461 60.4743 216.553C62.1129 213.59 62.3925 210.929 61.3765 208.275C60.3959 205.715 58.2474 203.278 55.3467 200.607C38.2233 184.838 26.6584 167.505 20.1285 147.096C13.5947 126.674 12.0824 103.11 15.1599 74.8559C16.4603 62.9167 16.7184 54.2128 15.4087 45.526C14.0996 36.8433 11.2329 28.2352 6.36184 16.4769Z" stroke="white" stroke-width="2"></path> </svg> 