<?xml version="1.0" encoding="UTF-8"?> <svg xmlns="http://www.w3.org/2000/svg" width="6003" height="1559" viewBox="0 0 6003 1559" fill="none"> <path d="M6001.21 1234.29C5378.81 1545.56 4744.53 1572.59 4505.2 1547.2C4505.2 1547.2 3797.19 1463.2 4171.19 1045.2C4316.86 882.397 4529.34 567.954 4439.2 351.188C4355.2 149.186 4106.67 109.187 4007.19 449.19C3907.72 789.193 3943.19 1154.28 3205.19 1234.29C2841.18 1273.74 2777.18 1510.29 2257.18 1510.29C2008.75 1510.29 1783.17 1417.2 1783.17 1189.19C1783.17 975.475 1968.45 785.411 2175.18 731.189C2419.18 667.191 2803.94 827.167 3205.19 715.191C3377.19 667.191 3533.19 635.19 3623.19 499.189C3731.45 335.6 3696.56 191.188 3623.19 109.187C3465.28 -67.2914 3269.19 10.4566 3045.18 109.187C2821.18 207.916 2753.18 25.855 2469.18 109.187C2071.17 225.971 1949.62 294.749 1819.17 491.19C1649.17 747.193 1472.4 867.194 1177.17 867.194C1111.17 867.194 847.165 835.194 739.164 645.192C652.763 493.19 536.495 465.857 489.162 471.19C253.159 505.191 115.158 859.197 3.15725 1003.2" stroke="white" stroke-width="2" stroke-dasharray="12 12"></path> </svg> 